HIERARCHY
ROOT Hips
{
	OFFSET 0.00000 0.00000 0.00000
	CHANNELS 6 Xposition Yposition Zposition Zrotation Yrotation Xrotation 
	JOINT LHipJoint
	{
		OFFSET 0 0 0
		CHANNELS 3 Zrotation Yrotation Xrotation
		JOINT LeftHip
		{
			OFFSET 1.54859 -1.61379 0.86856
			CHANNELS 3 Zrotation Yrotation Xrotation
			JOINT LeftKnee
			{
				OFFSET 2.25087 -6.18423 0.00000
				CHANNELS 3 Zrotation Yrotation Xrotation
				JOINT LeftAnkle
				{
					OFFSET 2.40328 -6.60297 0.00000
					CHANNELS 3 Zrotation Yrotation Xrotation
					JOINT LeftToe
					{
						OFFSET 0.17435 -0.47901 2.02453
						CHANNELS 3 Zrotation Yrotation Xrotation
						End Site
						{
							OFFSET 0.00000 -0.00000 1.04844
						}
					}
				}
			}
		}
	}
	JOINT RHipJoint
	{
		OFFSET 0 0 0
		CHANNELS 3 Zrotation Yrotation Xrotation
		JOINT RightHip
		{
			OFFSET -1.54669 -1.61379 0.86856
			CHANNELS 3 Zrotation Yrotation Xrotation
			JOINT RightKnee
			{
				OFFSET -2.28132 -6.26789 0.00000
				CHANNELS 3 Zrotation Yrotation Xrotation
				JOINT RightAnkle
				{
					OFFSET -2.51636 -6.91365 0.00000
					CHANNELS 3 Zrotation Yrotation Xrotation
					JOINT RightToe
					{
						OFFSET -0.15124 -0.41552 2.21090
						CHANNELS 3 Zrotation Yrotation Xrotation
						End Site
						{
							OFFSET -0.00000 -0.00000 1.13399
						}
					}
				}
			}
		}
	}
	JOINT lowerback
	{
		OFFSET 0 0 0
		CHANNELS 3 Zrotation Yrotation Xrotation
		JOINT Chest
		{
			OFFSET -0.04287 2.26161 -0.25690
			CHANNELS 3 Zrotation Yrotation Xrotation
			JOINT Chest2
			{
				OFFSET 0.02248 2.28395 -0.10140
				CHANNELS 3 Zrotation Yrotation Xrotation
				JOINT lowerneck
				{
					OFFSET 0 0 0
					CHANNELS 3 Zrotation Yrotation Xrotation
					JOINT Neck
					{
						OFFSET -0.11644 1.38496 0.11345
						CHANNELS 3 Zrotation Yrotation Xrotation
						JOINT Head
						{
							OFFSET 0.29383 1.36600 0.06642
							CHANNELS 3 Zrotation Yrotation Xrotation
							End Site
							{
								OFFSET 0.11075 1.41395 -0.00294
							}
						}
					}
				}
				JOINT LeftCollar
				{
					OFFSET 0 0 0
					CHANNELS 3 Zrotation Yrotation Xrotation
					JOINT LeftShoulder
					{
						OFFSET 3.51628 0.59542 -0.30346
CHANNELS 3 Zrotation Xrotation Yrotation
						JOINT LeftElbow
						{
OFFSET 0 -4.764050 0.000000
CHANNELS 3 Zrotation Xrotation Yrotation
							JOINT LeftWrist
							{
OFFSET 0 -3.137590 -0.000000
CHANNELS 3 Zrotation Xrotation Yrotation
								JOINT lhand
								{
									OFFSET 0 0 0
CHANNELS 3 Zrotation Xrotation Yrotation
									JOINT LFingers
									{
OFFSET 0 -0.732260 -0.000000
CHANNELS 3 Zrotation Xrotation Yrotation
										End Site
										{
OFFSET 0 -0.590370 -0.000000
										}
									}
								}
								JOINT LThumb
								{
OFFSET 0 0.000000 0.000000
CHANNELS 3 Zrotation Xrotation Yrotation
									End Site
									{
OFFSET 0 -0.599380 0.599380
									}
								}
							}
						}
					}
				}
				JOINT RightCollar
				{
					OFFSET 0 0 0
					CHANNELS 3 Zrotation Yrotation Xrotation
					JOINT RightShoulder
					{
						OFFSET -3.30990 0.84213 -0.36430
CHANNELS 3 Zrotation Xrotation Yrotation
						JOINT RightElbow
						{
OFFSET 0 -5.101610 -0.000000
CHANNELS 3 Zrotation Xrotation Yrotation
							JOINT RightWrist
							{
OFFSET 0 -3.232670 -0.000000
CHANNELS 3 Zrotation Xrotation Yrotation
								JOINT rhand
								{
									OFFSET 0 0 0
CHANNELS 3 Zrotation Xrotation Yrotation
									JOINT RFingers
									{
OFFSET 0 -0.702000 -0.000000
CHANNELS 3 Zrotation Xrotation Yrotation
										End Site
										{
OFFSET 0 -0.565970 -0.000000
										}
									}
								}
								JOINT RThumb
								{
OFFSET 0 0.000000 0.000000
CHANNELS 3 Zrotation Xrotation Yrotation
									End Site
									{
OFFSET 0 -0.574610 0.574610
									}
								}
							}
						}
					}
				}
			}
		}
	}
}
MOTION
Frames: 8
Frame Time: 0.008333333333333333
30.747500 15.524300 0.703400 173.046000 -71.070200 -175.440000 0.000000 0.000000 0.000000 -20.205500 0.327200 -6.019400 3.144900 10.925900 32.030500 1.702300 9.876400 -29.914700 0.224000 -3.046400 -8.407900 0.000000 0.000000 0.000000 15.462000 6.954500 -8.760200 -3.853100 -11.962300 35.598800 -0.988300 -13.644400 -28.167200 -0.603500 4.972800 -13.830900 -5.598600 0.028900 2.223600 0.764200 -0.171600 6.921300 3.918400 -0.525200 5.984600 -16.856100 -7.222000 5.682100 26.723300 -9.206300 -13.948900 11.811500 -5.617400 -2.671900 0.000000 -0.000000 0.000000 -6.779700 -6.399100 -16.706800 10.181700 -17.023200 1.527700 16.894700 14.939600 -23.235000 0.000000 0.000000 0.000000 -7.125000 0.000000 0.000000 -12.801700 53.689500 2.770500 0.000000 -0.000000 0.000000 1.594200 -4.788900 13.708700 -16.407400 -26.070000 -3.823300 -19.172500 0.702400 -26.623700 0.000000 0.000000 0.000000 7.125000 0.000000 -0.000000 6.471300 2.179300 6.261100
30.747991 15.524341 0.702418 172.956835 -71.101162 -175.348381 0.000000 0.000000 0.000000 -20.219979 0.346710 -6.040710 3.139337 10.917188 32.001255 1.681072 9.933662 -29.817600 0.239952 -3.149799 -8.696296 0.000000 0.000000 0.000000 15.427725 6.899856 -8.801838 -3.858663 -11.969908 35.625713 -0.967931 -13.719700 -28.093250 -0.640679 5.117632 -14.245028 -5.631239 0.014871 2.252313 0.756306 -0.191192 6.908171 3.927971 -0.535180 5.956828 -16.792089 -7.198277 5.635922 26.619042 -9.179469 -13.832535 11.753093 -5.592859 -2.648504 0.000000 0.000000 0.000000 -6.778514 -6.443069 -16.777437 10.131677 -16.945160 1.513139 17.139291 14.829411 -22.933720 0.000000 0.000000 0.000000 -7.125000 0.000000 0.000000 -12.427288 53.433293 2.612620 0.000000 0.000000 0.000000 1.597309 -4.763296 13.720889 -16.398238 -26.057689 -3.819251 -19.173604 0.672051 -26.674336 0.000000 0.000000 0.000000 7.125000 0.000000 0.000000 6.475717 2.127355 6.271530
30.748482 15.524382 0.701437 172.867669 -71.132125 -175.256761 0.000000 0.000000 0.000000 -20.234458 0.366220 -6.062019 3.133775 10.908476 31.972011 1.659844 9.990924 -29.720500 0.255903 -3.253198 -8.984693 0.000000 0.000000 0.000000 15.393449 6.845211 -8.843475 -3.864225 -11.977515 35.652626 -0.947562 -13.794999 -28.019300 -0.677859 5.262464 -14.659155 -5.663879 0.000842 2.281026 0.748412 -0.210784 6.895041 3.937542 -0.545160 5.929056 -16.728078 -7.174554 5.589744 26.514784 -9.152637 -13.716170 11.694685 -5.568318 -2.625109 0.000000 0.000000 0.000000 -6.777328 -6.487038 -16.848074 10.081655 -16.867120 1.498578 17.383882 14.719223 -22.632439 0.000000 0.000000 0.000000 -7.125000 0.000000 0.000000 -12.052875 53.177086 2.454740 0.000000 0.000000 0.000000 1.600417 -4.737691 13.733077 -16.389076 -26.045377 -3.815202 -19.174709 0.641702 -26.724972 0.000000 0.000000 0.000000 7.125000 0.000000 0.000000 6.480135 2.075410 6.281960
30.749495 15.524173 0.700478 172.827319 -71.167742 -175.211232 0.000000 0.000000 0.000000 -20.228367 0.370632 -6.084828 3.131300 10.904600 31.958932 1.649787 9.987111 -29.652302 0.258732 -3.272182 -9.037576 0.000000 0.000000 0.000000 15.381924 6.801647 -8.876236 -3.867767 -11.982353 35.669686 -0.923787 -13.892663 -27.942512 -0.715152 5.402302 -15.060205 -5.686074 -0.013619 2.316527 0.746943 -0.231965 6.883092 3.948021 -0.555571 5.898741 -16.637685 -7.157075 5.526561 26.381896 -9.132140 -13.593766 11.619431 -5.545208 -2.598920 0.000000 0.000000 0.000000 -6.780410 -6.531870 -16.963688 10.047775 -16.814236 1.488740 17.674926 14.538332 -22.379247 0.000000 0.000000 0.000000 -7.125000 0.000000 0.000000 -11.656371 52.975892 2.314139 0.000000 0.000000 0.000000 1.604525 -4.709885 13.744721 -16.387588 -26.043374 -3.814535 -19.147841 0.639870 -26.748590 0.000000 0.000000 0.000000 7.125000 0.000000 0.000000 6.498606 2.055910 6.302402
30.750926 15.523764 0.699537 172.826092 -71.207089 -175.202643 0.000000 0.000000 0.000000 -20.205789 0.362942 -6.108837 3.131300 10.904600 31.958809 1.648683 9.934348 -29.607270 0.251042 -3.223509 -8.901701 0.000000 0.000000 0.000000 15.388631 6.766962 -8.901881 -3.869689 -11.984971 35.678848 -0.897283 -14.008251 -27.863450 -0.752536 5.538136 -15.450774 -5.699899 -0.028425 2.357470 0.750625 -0.254420 6.872090 3.959228 -0.566328 5.866388 -16.526146 -7.144600 5.449748 26.226061 -9.116721 -13.466522 11.530675 -5.523244 -2.570494 0.000000 0.000000 0.000000 -6.786913 -6.577393 -17.115351 10.026834 -16.781515 1.482686 18.003202 14.300776 -22.164596 0.000000 0.000000 0.000000 -7.125000 0.000000 0.000000 -11.242162 52.818789 2.187385 0.000000 0.000000 0.000000 1.609433 -4.680313 13.755928 -16.392251 -26.049632 -3.816580 -19.098555 0.660893 -26.750553 0.000000 0.000000 0.000000 7.125000 0.000000 0.000000 6.528342 2.062413 6.330870
30.752281 15.523373 0.698583 172.829508 -71.243989 -175.198786 0.000000 0.000000 0.000000 -20.182572 0.357975 -6.130601 3.131079 10.904253 31.957542 1.648101 9.881035 -29.565271 0.243718 -3.177040 -8.772001 0.000000 0.000000 0.000000 15.396322 6.732990 -8.927148 -3.871819 -11.987868 35.689019 -0.874295 -14.107751 -27.794119 -0.784948 5.655989 -15.789619 -5.721296 -0.049371 2.394247 0.764943 -0.285367 6.864707 3.985621 -0.582485 5.841666 -16.446846 -7.123173 5.360372 26.073183 -9.090338 -13.334125 11.448504 -5.493567 -2.538817 0.000000 0.000000 0.000000 -6.816432 -6.627961 -17.225788 10.009881 -16.755032 1.477787 18.287205 14.092839 -21.976859 0.000000 0.000000 0.000000 -7.125000 0.000000 0.000000 -10.882949 52.680844 2.076921 0.000000 0.000000 0.000000 1.591650 -4.658670 13.790822 -16.395341 -26.053780 -3.817936 -19.052158 0.681822 -26.742929 0.000000 0.000000 0.000000 7.125000 0.000000 0.000000 6.555395 2.078202 6.355587
30.753017 15.523128 0.697519 172.870409 -71.261126 -175.233144 0.000000 0.000000 0.000000 -20.154186 0.374990 -6.134241 3.129075 10.901104 31.947030 1.651741 9.823282 -29.547765 0.239341 -3.148368 -8.692162 0.000000 0.000000 0.000000 15.411946 6.704768 -8.949357 -3.875623 -11.993022 35.707343 -0.879694 -14.077361 -27.803362 -0.777218 5.628667 -15.710842 -5.803835 -0.119885 2.397396 0.865152 -0.384880 6.886548 4.134625 -0.642243 5.878559 -16.627835 -7.029468 5.169567 25.944180 -8.975446 -13.160130 11.419505 -5.401621 -2.480901 0.000000 0.000000 0.000000 -7.031778 -6.719253 -17.003366 10.025138 -16.778919 1.482204 18.213745 14.124047 -22.006431 0.000000 0.000000 0.000000 -7.125000 0.000000 0.000000 -10.967778 52.697572 2.097986 0.000000 0.000000 0.000000 1.390660 -4.701044 14.016966 -16.385729 -26.040896 -3.813723 -19.029089 0.701987 -26.657895 0.000000 0.000000 0.000000 7.125000 0.000000 0.000000 6.560794 2.168963 6.350024
30.753754 15.522882 0.696456 172.911311 -71.278264 -175.267501 0.000000 0.000000 0.000000 -20.125801 0.392005 -6.137882 3.127071 10.897954 31.936518 1.655382 9.765530 -29.530259 0.234965 -3.119696 -8.612322 0.000000 0.000000 0.000000 15.427571 6.676546 -8.971567 -3.879427 -11.998175 35.725667 -0.885093 -14.046971 -27.812606 -0.769487 5.601345 -15.632066 -5.886375 -0.190399 2.400546 0.965361 -0.484393 6.908390 4.283629 -0.702000 5.915452 -16.808824 -6.935763 4.978761 25.815177 -8.860554 -12.986135 11.390506 -5.309674 -2.422984 0.000000 0.000000 0.000000 -7.247125 -6.810545 -16.780943 10.040394 -16.802805 1.486622 18.140286 14.155255 -22.036003 0.000000 0.000000 0.000000 -7.125000 0.000000 0.000000 -11.052608 52.714301 2.119050 0.000000 0.000000 0.000000 1.189670 -4.743418 14.243111 -16.376117 -26.028012 -3.809510 -19.006021 0.722151 -26.572860 0.000000 0.000000 0.000000 7.125000 0.000000 0.000000 6.566193 2.259723 6.344462
